<svg height="512" viewBox="0 0 64 64" width="512" xmlns="http://www.w3.org/2000/svg"><g id="Artificial_Intelligence-Robot" data-name="Artificial Intelligence-Robot"><path d="m61.9 56.553-5.9-11.789v-21.32a3.95 3.95 0 0 0 1-6.062v-9.382a2.981 2.981 0 0 0 -.52-1.685 4.983 4.983 0 0 0 2.52-4.315h-2a3 3 0 0 1 -6 0h-2a4.983 4.983 0 0 0 2.52 4.315 2.981 2.981 0 0 0 -.52 1.685v4h-10.148l-.265-.212a.981.981 0 0 0 .413-.788v-1h2a1 1 0 0 0 1-1v-4a1 1 0 0 0 -1-1h-2v-1a1 1 0 0 0 -1-1h-16a1 1 0 0 0 -1 1v1h-2a1 1 0 0 0 -1 1v4a1 1 0 0 0 1 1h2v1a.981.981 0 0 0 .413.788l-.265.212h-10.148v-4a2.981 2.981 0 0 0 -.52-1.685 4.983 4.983 0 0 0 2.52-4.315h-2a3 3 0 0 1 -6 0h-2a4.983 4.983 0 0 0 2.52 4.315 2.981 2.981 0 0 0 -.52 1.685v9.382a3.95 3.95 0 0 0 1 6.062v21.32l-5.895 11.789a1 1 0 0 0 -.105.447v3a2 2 0 0 0 2 2h56a2 2 0 0 0 2-2v-3a1 1 0 0 0 -.1-.447zm-21.282-.553-1.718-3.447a1 1 0 0 0 -.9-.553h-12a1 1 0 0 0 -.895.553l-1.723 3.447h-18.764l5-10h44.764l5 10zm-2.236 0h-12.764l1-2h10.764zm15.618-34a2 2 0 1 1 2-2 2 2 0 0 1 -2 2zm-3.858-1h-2.142v-2h2.142a3.592 3.592 0 0 0 0 2zm4.858-13v8.142a3.592 3.592 0 0 0 -2 0v-8.142a1 1 0 0 1 2 0zm-4 6v3h-3a2 2 0 0 0 -2-2h-2a1 1 0 0 0 -.375-.781l-.273-.219zm-27.382 14-1.618-3.236v-9.284l4.351-3.48h11.3l4.349 3.48v9.284l-1.618 3.236zm9.382 11a1 1 0 1 1 -1-1 1 1 0 0 1 1 1zm-13-16h-2v-6h2zm24-6h2v6h-2zm-2-11v2h-1v-2zm-17-2h14v6h-14zm-3 4v-2h1v2zm-1.352 6-.273.219a1 1 0 0 0 -.375.781h-2a2 2 0 0 0 -2 2h-3v-3zm-4.648 7h-2.142a3.592 3.592 0 0 0 0-2h2.142zm-8-1a2 2 0 1 1 2 2 2 2 0 0 1 -2-2zm3-12v8.142a3.592 3.592 0 0 0 -2 0v-8.142a1 1 0 0 1 2 0zm1.618 15h3.382a2 2 0 0 0 2 2h2a1 1 0 0 0 .105.447l2 4a1 1 0 0 0 .895.553h2v2.586l-2.414 2.414h-1.77a3 3 0 1 0 0 2h2.184a1 1 0 0 0 .707-.293l3-3a1 1 0 0 0 .293-.707v-3h4v6.184a3 3 0 1 0 2 0v-6.184h3v3a1 1 0 0 0 .293.707l3 3a1 1 0 0 0 .707.293h2.184a3 3 0 1 0 0-2h-1.77l-2.414-2.414v-2.586h3a1 1 0 0 0 .9-.553l2-4a1 1 0 0 0 .1-.447h2a2 2 0 0 0 2-2h3.382a3.962 3.962 0 0 0 2.618 1v20h-44v-20a3.962 3.962 0 0 0 2.618-1zm6.382 13a1 1 0 1 1 -1-1 1 1 0 0 1 1 1zm25 0a1 1 0 1 1 1 1 1 1 0 0 1 -1-1zm-40 24v-2h56v2z"/><path d="m10 52h2v2h-2z"/><path d="m14 52h2v2h-2z"/><path d="m48 52h2v2h-2z"/><path d="m52 52h2v2h-2z"/><path d="m15 48h2v2h-2z"/><path d="m11 48h2v2h-2z"/><path d="m19 48h2v2h-2z"/><path d="m23 48h2v2h-2z"/><path d="m27 48h2v2h-2z"/><path d="m31 48h2v2h-2z"/><path d="m35 48h2v2h-2z"/><path d="m39 48h2v2h-2z"/><path d="m43 48h2v2h-2z"/><path d="m47 48h2v2h-2z"/><path d="m51 48h2v2h-2z"/><path d="m18 52h4v2h-4z"/><path d="m42 52h4v2h-4z"/><path d="m36 16h-8a3 3 0 0 0 -3 3v2a3 3 0 0 0 3 3h8a3 3 0 0 0 3-3v-2a3 3 0 0 0 -3-3zm1 5a1 1 0 0 1 -1 1h-8a1 1 0 0 1 -1-1v-2a1 1 0 0 1 1-1h8a1 1 0 0 1 1 1z"/><path d="m31 19h2v2h-2z"/><path d="m27 6h2v2h-2z"/><path d="m35 6h2v2h-2z"/></g></svg>