<svg height="480pt" viewBox="0 0 480 480.68" width="480pt" xmlns="http://www.w3.org/2000/svg" xmlns:xlink="http://www.w3.org/1999/xlink"><linearGradient id="a"><stop offset="0" stop-color="#662d91"/><stop offset=".437" stop-color="#3873b3"/><stop offset="1" stop-color="#00c9dd"/></linearGradient><linearGradient id="b" gradientUnits="userSpaceOnUse" x1="27.02" x2="404.604" xlink:href="#a" y1="70" y2="447.584"/><linearGradient id="c" gradientUnits="userSpaceOnUse" x1="-15.66" x2="361.924" xlink:href="#a" y1="112.68" y2="490.264"/><linearGradient id="d" gradientUnits="userSpaceOnUse" x1="28.34" x2="405.924" xlink:href="#a" y1="68.68" y2="446.264"/><linearGradient id="e" gradientUnits="userSpaceOnUse" x1="-99.66" x2="277.924" xlink:href="#a" y1="196.68" y2="574.264"/><linearGradient id="f" gradientUnits="userSpaceOnUse" x1="-63.66" x2="313.924" xlink:href="#a" y1="160.68" y2="538.264"/><linearGradient id="g" gradientUnits="userSpaceOnUse" x1="-47.66" x2="329.924" xlink:href="#a" y1="144.68" y2="522.264"/><path d="m280.339844 408.679688h-48v-96c0-10.125-3.226563-19.984376-9.207032-28.152344l-82.703124-135.414063c.773437-1.984375 1.433593-4.007812 1.972656-6.066406l194.035156-67.199219-6.601562 14.175782c-2.292969 4.90625-1.914063 10.640624 1.007812 15.199218 2.917969 4.640625 8.015625 7.457032 13.496094 7.457032h16v16h-16c-4.417969 0-8 3.582031-8 8v24c-2.121094 0-4.15625.84375-5.65625 2.34375l-24 24c-2.339844 2.339843-3 5.878906-1.65625 8.90625l32 72c1.285156 2.886718 4.148437 4.75 7.3125 4.75h24c4.417968 0 8-3.582032 8-8v-88h16v88c0 4.417968 3.582031 8 8 8h24c3.164062 0 6.027344-1.863282 7.3125-4.75l32-72c1.34375-3.027344.683594-6.566407-1.65625-8.90625l-24-24c-1.5-1.5-3.535156-2.34375-5.65625-2.34375v-24c0-4.417969-3.582032-8-8-8h-16v-16h14.9375c4.578125.015624 8.945312-1.941407 11.984375-5.371094 3.039062-3.425782 4.457031-7.996094 3.894531-12.539063l-6.878906-54.496093c-.257813-2.042969-1.292969-3.910157-2.890625-5.210938l-35.863281-29.175781c-3.609376-3.945313-8.953126-5.8359378-14.242188-5.03125-5.292969.800781-9.832031 4.191406-12.109375 9.03125l-4.640625 9.992187-33.101562-19.878906-242.503907 72.753906c-24.914062.589844-46.425781 17.589844-52.753906 41.691406-6.332031 24.101563 4.050781 49.480469 25.457031 62.234376l76.710938 138.074218v29.925782h-88v64h-16v56h-32v16h480v-16h-200zm80-216h-16v16h16v8h-8v16h8v24h-10.800782l-27.65625-62.222657 17.769532-17.777343h20.6875zm86.457031 1.777343-27.65625 62.222657h-10.800781v-24h8v-16h-8v-8h16v-16h-16v-16h20.6875zm-30.457031-33.777343h-64v-16h64zm-24-32h-16v-16h16zm-10.632813-112c.351563.433593.746094.832031 1.175781 1.183593l33.921876 27.617188 6.472656 51.199219-22.746094.039062c-.070312 0-.128906-.039062-.191406-.039062h-32c-.160156 0-.304688.082031-.464844.097656h-23.535156l8.296875-17.824219 12.199219 7.320313c8.550781 5.210937 19.238281 5.445312 28.003906.605468 8.769531-4.839844 14.269531-14.007812 14.414062-24.019531.144532-10.015625-5.089844-19.335937-13.714844-24.425781l-17.199218-10.28125zm3.609375 35.511718c5.632813 3.382813 7.457032 10.691406 4.074219 16.324219-3.378906 5.632813-10.6875 7.457031-16.324219 4.078125l-27.8125-16.714844-201.074218 69.601563c-1.074219-18.628907-11.355469-35.5-27.421876-44.992188l210.496094-63.128906zm-336.976562 76.488282c0-22.089844 17.910156-40 40-40s40 17.910156 40 40c-.046875 6.695312-1.792969 13.269531-5.078125 19.105468l-1.753907 1.0625.625 1.015625c-9.425781 15.140625-27.753906 22.1875-44.894531 17.265625s-28.9375-20.617187-28.898437-38.449218zm40 56c16.535156 0 32.222656-7.324219 42.839844-20l61.601562 100.800781c-2.785156-.519531-5.609375-.785157-8.441406-.800781-18.121094.023437-34.683594 10.25-42.824219 26.441406l-59.335937-106.800782c2.046874.234376 4.101562.351563 6.160156.359376zm64 128c0-17.671876 14.328125-32 32-32s32 14.328124 32 32v96h-64zm-88 48h72v48h-72zm-16 104v-40h216v40zm0 0" fill="url(#b)"/><path d="m184.339844 336.679688c13.253906 0 24-10.746094 24-24 0-13.253907-10.746094-24-24-24s-24 10.746093-24 24c0 13.253906 10.746094 24 24 24zm0-32c4.417968 0 8 3.582031 8 8 0 4.417968-3.582032 8-8 8-4.417969 0-8-3.582032-8-8 0-4.417969 3.582031-8 8-8zm0 0" fill="url(#c)"/><path d="m88.339844 152.679688c13.253906 0 24-10.746094 24-24 0-13.253907-10.746094-24-24-24s-24 10.746093-24 24c0 13.253906 10.746094 24 24 24zm0-32c4.417968 0 8 3.582031 8 8 0 4.417968-3.582032 8-8 8-4.417969 0-8-3.582032-8-8 0-4.417969 3.582031-8 8-8zm0 0" fill="url(#d)"/><path d="m72.339844 368.679688h16v16h-16zm0 0" fill="url(#e)"/><path d="m160.339844 384.679688h16v16h-16zm0 0" fill="url(#f)"/><path d="m192.339844 384.679688h16v16h-16zm0 0" fill="url(#g)"/></svg>