<svg id="icons" enable-background="new 0 0 64 64" height="512" viewBox="0 0 64 64" width="512" xmlns="http://www.w3.org/2000/svg"><path d="m47.526 59.5h7v3h-7z" fill="#545c66"/><path d="m24.526 59.5h6v3h-6z" fill="#545c66"/><path d="m30.528 63.5h-6c-.553 0-1-.447-1-1v-3c0-.553.447-1 1-1h6c.553 0 1 .447 1 1v3c0 .553-.447 1-1 1zm-5-2h4v-1h-4z" fill="#545c66"/><path d="m54.522 63.5h-7c-.553 0-1-.447-1-1v-3c0-.553.447-1 1-1h7c.553 0 1 .447 1 1v3c0 .553-.447 1-1 1zm-6-2h5v-1h-5z" fill="#545c66"/><path d="m41.528 40.5c-.553 0-1-.447-1-1v-3.996c0-.553.447-1 1-1s1 .447 1 1v3.996c0 .553-.447 1-1 1z" fill="#ccd1d9"/><path d="m56.524 43.504h-17.996c-.553 0-1-.447-1-1v-3.004c0-.553.447-1 1-1h17.996c.553 0 1 .447 1 1v3.004c0 .553-.447 1-1 1zm-16.996-2h15.996v-1.004h-15.996z" fill="#8cc152"/><path d="m45.528 13.498c-.256 0-.512-.098-.707-.293l-11-10.998c-.391-.391-.391-1.023 0-1.414s1.023-.391 1.414 0l11 10.998c.391.391.391 1.023 0 1.414-.195.195-.451.293-.707.293z" fill="#e6e9ed"/><path d="m42.524 17.502c-.256 0-.512-.098-.707-.293l-11.5-11.498c-.391-.391-.391-1.023 0-1.414s1.023-.391 1.414 0l11.5 11.498c.391.391.391 1.023 0 1.414-.195.195-.451.293-.707.293z" fill="#e6e9ed"/><path d="m45.526 12.5-3 4-9.501-9.49v-.01l3.5-3.5z" fill="#e6e9ed"/><g fill="#8cc152"><path d="m22.528 40.5c-.553 0-1-.447-1-1v-8.998c0-.553.447-1 1-1s1 .447 1 1v8.998c0 .553-.447 1-1 1z"/><path d="m22.529 31.502c-.315 0-.626-.148-.82-.426-.316-.453-.207-1.076.246-1.393l20-13.998c.453-.316 1.077-.207 1.393.246.316.451.207 1.076-.246 1.393l-20 13.998c-.175.121-.374.18-.573.18z"/><path d="m34.528 33.502c-.236 0-.474-.082-.664-.252-.413-.367-.45-1-.083-1.412l8-8.996c.366-.414.999-.451 1.411-.082.413.367.45.998.083 1.41l-8 8.996c-.197.223-.471.336-.747.336z"/><path d="m34.528 40.498c-.553 0-1-.447-1-1v-6.996c0-.553.447-1 1-1s1 .447 1 1v6.996c0 .553-.447 1-1 1z"/><path d="m53.523 17.504c-.15 0-.303-.033-.447-.105l-7.996-4.006c-.493-.248-.693-.848-.446-1.342.248-.494.846-.693 1.343-.447l7.996 4.006c.493.248.693.85.446 1.344-.176.349-.528.55-.896.55z"/><path d="m42.527 17.504c-.208 0-.419-.064-.599-.199-.441-.33-.532-.957-.201-1.4l3-4.006c.33-.439.958-.533 1.4-.201.441.332.532.959.201 1.4l-3 4.006c-.195.261-.496.4-.801.4z"/></g><path d="m17.476 3.5c-6.07 0-11 4.93-11 11 0 6.08 4.93 11 11 11 6.08 0 11-4.92 11-11 0-6.07-4.92-11-11-11z" fill="#e6e9ed"/><path d="m19.286 19.75c-.26.451-.74.75-1.291.75-.83 0-1.5-.67-1.5-1.5s.67-1.5 1.5-1.5c.551 0 1.031.301 1.291.75.141.221.209.471.209.75 0 .281-.068.531-.209.75z" fill="#ac92ec"/><path d="m16.087 8.08c.779-.779 2.039-.779 2.818 0 .781.791.781 2.051 0 2.83l-2.818 2.83c-.791.781-2.051.781-2.83 0-.781-.779-.781-2.039 0-2.83z" fill="#5d9cec"/><path d="m30.299 2.838h6.955v2.832h-6.955z" fill="#656d78" transform="matrix(.707 -.707 .707 .707 6.885 25.13)"/><path d="m56.526 55.5v5h-2-7-17-6-2v-5h16 4.991 10z" fill="#656d78"/><path d="m43.517 47.502h10v3h-10z" fill="#545c66"/><path d="m44.526 23.51h7v2.99h-7z" fill="#e6e9ed"/><path d="m43.517 53.502h10v1.998h-10z" fill="#545c66"/><path d="m56.526 39.5v3h-18v-3h3z" fill="#8cc152"/><path d="m35.526 47.5c0-2.76-2.24-5-5-5s-5 2.24-5 5 2.24 5 5 5 5-2.24 5-5zm3-5v13h-16v-16h12 4z" fill="#a0d468"/><path d="m45.526 26.51h5v3.99h-5z" fill="#ccd1d9"/><path d="m32.526 47.5c0-1.109-.891-2-2-2-1.1 0-2 .891-2 2 0 1.1.9 2 2 2 1.11 0 2-.9 2-2zm-2-5c2.76 0 5 2.24 5 5s-2.24 5-5 5-5-2.24-5-5 2.241-5 5-5z" fill="#545c66"/><path d="m42.526 16.5v7.01l-8 8.99v7h-12v-9z" fill="#8cc152"/><path d="m43.517 50.502h10v3h-10z" fill="#545c66"/><path d="m53.526 16.5h-11l3-4z" fill="#8cc152"/><path d="m53.526 16.5v7.01h-2-7-2v-7.01z" fill="#a0d468"/><path d="m38.528 56.5h-16c-.553 0-1-.447-1-1v-16c0-.553.447-1 1-1h16c.553 0 1 .447 1 1v16c0 .553-.447 1-1 1zm-15-2h14v-14h-14z" fill="#a0d468"/><path d="m56.524 37.504h-17.998c-.553 0-1-.447-1-1s.447-1 1-1h17.998c.553 0 1 .447 1 1s-.447 1-1 1z" fill="#e6e9ed"/><path d="m30.528 53.498c-3.309 0-6-2.691-6-6s2.691-6 6-6 6 2.691 6 6-2.691 6-6 6zm0-10c-2.206 0-4 1.795-4 4 0 2.207 1.794 4 4 4s4-1.793 4-4c0-2.205-1.794-4-4-4z" fill="#545c66"/><path d="m50.526 31.502h-4.998c-.553 0-1-.447-1-1v-3.996c0-.553.447-1 1-1h4.998c.553 0 1 .447 1 1v3.996c0 .553-.447 1-1 1zm-3.998-2h2.998v-1.996h-2.998z" fill="#ccd1d9"/><path d="m51.524 27.504h-6.998c-.553 0-1-.447-1-1v-2.998c0-.553.447-1 1-1h6.998c.553 0 1 .447 1 1v2.998c0 .553-.447 1-1 1zm-5.998-2h4.998v-.998h-4.998z" fill="#e6e9ed"/><path d="m53.524 24.506h-10.996c-.553 0-1-.447-1-1v-7.002c0-.553.447-1 1-1h10.996c.553 0 1 .447 1 1v7.002c0 .553-.447 1-1 1zm-9.996-2h8.996v-5.002h-8.996z" fill="#a0d468"/><path d="m11.13 16.863c-.256 0-.512-.098-.707-.293-.391-.391-.391-1.023 0-1.414l2.121-2.121c.391-.391 1.023-.391 1.414 0s.391 1.023 0 1.414l-2.121 2.121c-.195.196-.451.293-.707.293z" fill="#4a89dc"/><path d="m17.991 18.498c-.553 0-1-.447-1-1v-1c0-.553.447-1 1-1s1 .447 1 1v1c0 .553-.447 1-1 1z" fill="#967adc"/><path d="m17.991 22.496c-.553 0-1-.447-1-1v-1c0-.553.447-1 1-1s1 .447 1 1v1c0 .553-.447 1-1 1z" fill="#967adc"/><path d="m16.691 19.248c-.17 0-.342-.043-.499-.133l-.865-.5c-.479-.277-.643-.889-.366-1.367s.888-.643 1.366-.365l.865.5c.479.275.643.889.366 1.365-.185.322-.521.5-.867.5z" fill="#967adc"/><path d="m20.154 21.248c-.17 0-.342-.043-.499-.133l-.865-.5c-.479-.277-.643-.889-.366-1.367s.889-.641 1.366-.365l.865.5c.479.275.643.889.366 1.365-.185.322-.521.5-.867.5z" fill="#967adc"/><path d="m15.828 21.248c-.346 0-.682-.178-.867-.5-.276-.477-.112-1.09.366-1.365l.865-.5c.477-.275 1.089-.113 1.366.365.276.479.112 1.09-.366 1.367l-.865.5c-.157.09-.329.133-.499.133z" fill="#967adc"/><path d="m19.291 19.248c-.346 0-.683-.18-.867-.5-.276-.479-.111-1.09.367-1.365l.867-.5c.479-.277 1.091-.111 1.365.367.276.477.111 1.09-.367 1.365l-.867.5c-.157.09-.329.133-.498.133z" fill="#967adc"/><path d="m23.488 18.498c-.328 0-.648-.162-.838-.459-.505-.791-1.068-2.547.022-4.111.597-.855-.002-1.857-.027-1.898-.286-.469-.145-1.084.321-1.375.462-.291 1.074-.154 1.369.307.505.791 1.068 2.549-.022 4.111-.597.855.002 1.855.027 1.898.286.467.145 1.082-.32 1.373-.166.103-.35.154-.532.154z" fill="#a0d468"/><path d="m18.909 11.912c-.256 0-.512-.098-.707-.293-.391-.391-.391-1.023 0-1.414.39-.389.39-1.023 0-1.414-.391-.391-1.023-.391-1.414 0s-1.023.391-1.414 0-.391-1.023 0-1.414c1.17-1.17 3.072-1.17 4.242 0s1.17 3.072 0 4.242c-.195.195-.451.293-.707.293z" fill="#5d9cec"/><path d="m14.666 15.328c-.769 0-1.537-.293-2.122-.879-1.168-1.17-1.167-3.072.002-4.242.391-.391 1.023-.391 1.414 0s.391 1.023 0 1.414c-.39.391-.391 1.025-.001 1.416.389.389 1.024.391 1.415-.002.391-.391 1.023-.391 1.414 0s.391 1.023 0 1.414c-.585.586-1.353.879-2.122.879z" fill="#5d9cec"/><path d="m16.081 14.742c-.256 0-.512-.098-.707-.293-.391-.389-.391-1.023 0-1.414l2.828-2.83c.391-.391 1.023-.391 1.414 0s.391 1.023 0 1.414l-2.828 2.83c-.195.196-.451.293-.707.293z" fill="#5d9cec"/><path d="m13.253 11.914c-.256 0-.512-.098-.707-.293-.391-.389-.391-1.023 0-1.414l2.828-2.83c.391-.391 1.023-.391 1.414 0s.391 1.023 0 1.414l-2.828 2.83c-.195.195-.451.293-.707.293z" fill="#5d9cec"/><path d="m53.517 56.5h-9.996c-.553 0-1-.447-1-1v-8c0-.553.447-1 1-1h9.996c.553 0 1 .447 1 1v8c0 .553-.448 1-1 1zm-8.996-2h7.996v-6h-7.996z" fill="#545c66"/><path d="m54.509 50.5h-12c-.553 0-1-.447-1-1s.447-1 1-1h12c.553 0 1 .447 1 1s-.447 1-1 1z" fill="#656d78"/><path d="m54.509 53.502h-12c-.553 0-1-.447-1-1s.447-1 1-1h12c.553 0 1 .447 1 1s-.447 1-1 1z" fill="#656d78"/><path d="m33.025 8.008c-.256 0-.512-.098-.707-.293-.391-.391-.391-1.023 0-1.414l3.504-3.504c.391-.391 1.023-.391 1.414 0s.391 1.023 0 1.414l-3.504 3.504c-.195.195-.451.293-.707.293z" fill="#656d78"/><path d="m31.024 6.004c-.256 0-.512-.098-.707-.293-.391-.391-.391-1.023 0-1.414l3.504-3.504c.391-.391 1.023-.391 1.414 0s.391 1.023 0 1.414l-3.504 3.504c-.195.195-.451.293-.707.293z" fill="#656d78"/><path d="m17.991 21.496c-1.379 0-2.5-1.121-2.5-2.5s1.121-2.5 2.5-2.5 2.5 1.121 2.5 2.5-1.121 2.5-2.5 2.5zm0-3c-.275 0-.5.225-.5.5s.225.5.5.5.5-.225.5-.5-.224-.5-.5-.5z" fill="#ac92ec"/><path d="m30.526 43c2.496 0 4.5 2.004 4.5 4.5 0 2.477-2.004 4.5-4.5 4.5-2.477 0-4.5-2.023-4.5-4.5 0-2.496 2.024-4.5 4.5-4.5z" fill="#656d78"/><path d="m56.522 61.496h-33.994c-.553 0-1-.447-1-1v-4.996c0-.553.447-1 1-1h33.994c.553 0 1 .447 1 1v4.996c0 .553-.447 1-1 1zm-32.994-2h31.994v-2.996h-31.994z" fill="#656d78"/></svg>