<?xml version="1.0" standalone="no"?>
<!DOCTYPE svg PUBLIC "-//W3C//DTD SVG 20010904//EN"
 "http://www.w3.org/TR/2001/REC-SVG-20010904/DTD/svg10.dtd">
<svg version="1.0" xmlns="http://www.w3.org/2000/svg"
 width="1322.000000pt" height="1180.000000pt" viewBox="0 0 1322.000000 1180.000000"
 preserveAspectRatio="xMidYMid meet">
<metadata>
Created by potrace 1.15, written by Peter Selinger 2001-2017
</metadata>
<g transform="translate(0.000000,1180.000000) scale(0.100000,-0.100000)"
fill="#000000" stroke="none">
<path d="M5390 11500 l0 -60 30 0 c27 0 30 3 30 30 0 27 3 30 30 30 27 0 30
-3 30 -30 l0 -30 60 0 60 0 0 30 c0 28 2 30 40 30 38 0 40 -2 40 -30 0 -28 3
-30 35 -30 32 0 35 2 35 30 0 30 1 30 55 30 54 0 55 0 55 -30 0 -29 2 -30 45
-30 43 0 45 1 45 30 0 30 1 30 55 30 54 0 55 0 55 -30 l0 -30 60 0 60 0 0 30
c0 30 1 30 55 30 54 0 55 0 55 -30 0 -29 2 -30 45 -30 43 0 45 1 45 30 0 29 2
30 45 30 43 0 45 -1 45 -30 0 -28 2 -30 40 -30 38 0 40 2 40 30 l0 30 120 0
120 0 0 -30 0 -30 70 0 70 0 0 30 c0 27 3 30 30 30 27 0 30 -3 30 -30 0 -27 3
-30 30 -30 27 0 30 3 30 30 0 27 -3 30 -30 30 -27 0 -30 3 -30 30 l0 30 -815
0 -815 0 0 -60z"/>
<path d="M7339 11342 c-37 -2 -52 -9 -73 -32 -14 -17 -31 -30 -36 -30 -5 0
-12 -11 -16 -25 -3 -14 -12 -25 -19 -25 -21 0 -45 -29 -39 -45 5 -11 -1 -15
-19 -15 -27 0 -49 -20 -45 -41 2 -7 -10 -15 -27 -18 -24 -5 -31 -12 -33 -34
-3 -21 -9 -27 -27 -27 -19 0 -24 -7 -30 -45 -3 -26 -10 -43 -16 -39 -6 3 -17
-2 -24 -12 -10 -14 -14 -51 -15 -134 0 -120 -6 -163 -21 -154 -5 3 -9 -2 -9
-10 0 -9 5 -16 10 -16 6 0 10 -4 10 -10 0 -6 -39 -10 -96 -10 -80 0 -99 -3
-110 -17 -12 -16 -13 -10 -14 43 0 63 -15 124 -31 124 -5 0 -9 -5 -9 -12 0 -7
-3 -8 -9 -2 -7 7 -19 99 -22 177 -1 24 -16 21 -24 -4 -6 -17 -9 -19 -16 -8 -5
8 -9 24 -9 37 0 12 -4 22 -10 22 -5 0 -10 8 -10 18 0 14 2 15 10 2 8 -12 10
-11 10 8 0 13 -5 28 -10 35 -39 46 -60 67 -68 67 -5 0 -12 14 -15 30 -5 24
-12 30 -32 30 -18 0 -25 5 -25 19 0 23 -17 38 -48 43 -12 1 -23 8 -24 13 -2
24 -43 38 -110 37 -74 -1 -131 -19 -123 -39 3 -10 -15 -13 -73 -13 -52 0 -84
-5 -98 -15 -12 -8 -24 -11 -28 -8 -3 3 -6 1 -6 -5 0 -7 5 -12 12 -12 8 0 8 -3
3 -9 -6 -6 -59 -11 -118 -12 -75 -2 -113 -7 -125 -16 -12 -11 -14 -16 -4 -19
30 -13 -5 -24 -77 -24 -79 0 -106 -11 -99 -41 2 -7 -12 -17 -32 -22 -44 -13
-45 -14 -31 -30 15 -19 -21 -52 -49 -44 -16 4 -18 2 -11 -10 10 -19 -15 -53
-40 -53 -10 0 -23 -13 -30 -30 -9 -19 -22 -30 -39 -32 -18 -2 -26 -10 -28 -28
-2 -18 -12 -29 -31 -37 -20 -7 -31 -20 -36 -42 -3 -17 -10 -31 -14 -31 -15 0
-20 -105 -10 -205 16 -156 16 -158 17 -197 2 -26 7 -38 17 -38 8 0 15 -7 15
-15 0 -8 7 -15 15 -15 8 0 15 -6 15 -14 0 -8 3 -21 6 -30 5 -13 -1 -16 -32
-16 -40 -1 -80 -22 -71 -37 10 -16 -21 -45 -45 -41 -18 2 -24 11 -28 38 -4 26
-10 36 -26 38 -14 2 -24 12 -27 30 -6 30 -57 92 -75 92 -7 0 -12 9 -12 20 0
12 -10 25 -26 32 -22 10 -25 16 -19 44 6 37 -9 54 -24 27 -12 -23 -21 -14 -24
25 -1 24 -9 34 -29 43 -19 8 -28 19 -28 35 0 19 -7 24 -35 30 -36 6 -58 24
-31 24 16 0 23 19 9 21 -5 0 -17 3 -28 6 -11 4 -68 8 -127 10 -118 5 -153 -5
-143 -38 5 -14 2 -19 -13 -19 -11 0 -25 -7 -32 -15 -10 -12 -16 -13 -26 -4 -8
6 -14 8 -14 4 0 -4 8 -14 17 -21 16 -11 15 -13 -12 -20 -17 -4 -49 -27 -73
-51 -24 -24 -51 -43 -61 -43 -22 0 -41 -19 -35 -34 3 -7 -11 -16 -33 -22 -24
-6 -42 -17 -48 -31 -5 -13 -19 -23 -30 -23 -44 0 -65 -12 -65 -36 0 -18 -5
-24 -22 -24 -46 0 -70 -12 -65 -31 6 -22 -2 -28 -37 -31 -14 -1 -26 -6 -26
-11 0 -4 -5 -5 -11 -1 -8 5 -8 1 0 -14 10 -18 7 -23 -19 -39 -16 -9 -30 -23
-30 -30 0 -7 -7 -13 -15 -13 -8 0 -15 -4 -15 -9 0 -12 -64 -81 -75 -81 -10 0
-45 -40 -45 -52 0 -4 -10 -8 -22 -8 -51 -1 -58 -18 -58 -143 0 -129 9 -167 40
-167 17 0 20 -7 20 -39 0 -39 22 -62 36 -39 9 14 24 -10 24 -40 0 -14 9 -27
25 -34 14 -6 25 -18 25 -26 0 -9 7 -24 17 -34 9 -11 11 -18 5 -18 -13 0 -16
-38 -6 -64 9 -23 21 -20 29 7 5 16 8 18 12 7 3 -8 14 -23 25 -34 10 -11 16
-28 13 -37 -4 -12 3 -20 25 -27 16 -6 30 -18 30 -26 0 -14 -70 -15 -607 -16
-684 0 -637 5 -645 -80 -5 -45 -24 -80 -46 -80 -6 0 -11 -53 -11 -129 -2 -104
-5 -135 -21 -165 -16 -33 -19 -35 -25 -16 -16 50 -22 10 -17 -115 5 -128 4
-135 -13 -129 -15 6 -17 3 -13 -14 4 -12 3 -24 -2 -27 -4 -3 -11 7 -14 21 -7
25 -8 26 -21 8 -11 -15 -14 -58 -15 -191 0 -103 -4 -174 -10 -178 -5 -3 -10 1
-10 9 0 9 -4 16 -9 16 -23 0 -29 -35 -31 -180 -1 -152 -4 -176 -18 -153 -12
18 -33 -1 -37 -33 -2 -16 -4 -80 -4 -143 -1 -94 -3 -112 -15 -108 -10 4 -18
-5 -25 -26 -17 -51 -19 -76 -20 -184 -1 -85 -4 -103 -16 -103 -8 0 -15 -8 -15
-18 0 -10 -5 -23 -11 -29 -6 -6 -13 -38 -16 -72 -3 -34 -10 -64 -14 -67 -5 -3
-9 -31 -9 -62 0 -71 -10 -133 -20 -127 -4 3 -11 -15 -15 -40 -3 -25 -10 -43
-16 -40 -5 4 -9 -30 -9 -82 0 -91 -12 -135 -23 -91 -4 12 -7 51 -7 86 0 34 -4
62 -10 62 -6 0 -10 -48 -9 -122 1 -129 -11 -261 -24 -274 -4 -4 -7 11 -7 34 0
23 -4 42 -10 42 -10 0 -21 -36 -18 -60 6 -37 -15 -310 -23 -310 -5 0 -9 11 -9
25 0 14 -4 25 -9 25 -12 0 -19 -68 -25 -235 -3 -71 -5 -132 -5 -134 -1 -3 -6
0 -13 7 -25 25 -37 -19 -38 -143 -1 -66 -5 -129 -10 -140 -5 -11 -9 -14 -9 -7
-1 6 -5 12 -10 12 -17 0 -31 -99 -31 -217 0 -95 -2 -114 -14 -110 -9 3 -17 -3
-21 -16 -4 -12 -9 -29 -12 -37 -3 -8 -9 -71 -12 -140 -5 -114 -8 -129 -33
-167 -27 -40 -28 -49 -28 -162 0 -93 -3 -121 -15 -131 -8 -7 -15 -19 -15 -26
0 -8 -7 -14 -15 -14 -12 0 -15 -20 -15 -120 0 -73 -4 -120 -10 -120 -5 0 -10
-10 -10 -22 0 -13 -4 -29 -9 -37 -7 -11 -10 -9 -16 9 -13 40 -24 6 -31 -93 -5
-70 -4 -97 5 -97 6 0 11 -9 11 -20 0 -11 -4 -20 -10 -20 -5 0 -10 -17 -10 -37
0 -21 -5 -45 -10 -53 -9 -13 -11 -13 -20 0 -8 13 -10 12 -10 -2 0 -10 -4 -18
-10 -18 -6 0 -10 -56 -10 -147 0 -145 -8 -195 -25 -156 -13 30 -26 -47 -31
-182 -5 -130 -9 -150 -24 -140 -5 3 -10 0 -10 -9 0 -8 -6 -16 -12 -18 -9 -3
-14 -47 -16 -151 -3 -101 -8 -147 -16 -147 -23 0 -37 -59 -43 -187 -4 -92 -10
-133 -18 -133 -22 0 -35 -51 -35 -143 0 -98 -10 -148 -33 -172 -13 -13 -17
-12 -29 6 -11 17 -13 -2 -9 -135 2 -110 0 -156 -8 -156 -6 0 -11 -9 -11 -20 0
-22 -16 -27 -23 -7 -6 18 -19 2 -23 -30 -2 -15 -7 -92 -11 -170 -6 -138 -13
-168 -28 -121 -12 38 -36 -116 -33 -210 2 -45 0 -82 -4 -82 -5 0 -8 -85 -8
-190 l0 -190 124 0 123 0 32 37 c17 20 31 47 31 61 0 20 2 22 15 12 12 -10 16
-8 25 15 5 14 10 46 10 69 0 24 3 85 7 137 7 94 19 90 22 -8 0 -23 5 -44 10
-48 6 -3 9 15 9 42 -1 70 18 322 25 329 3 4 9 -7 14 -22 7 -29 7 -29 15 11 4
22 10 96 14 164 6 97 11 127 24 140 25 24 32 54 39 171 4 64 10 103 16 100 16
-8 43 145 44 251 1 46 6 70 16 79 8 7 15 21 15 31 0 11 4 19 9 19 4 0 11 53
14 117 4 91 10 127 26 158 l20 40 1 -32 c0 -20 5 -33 13 -33 9 0 11 36 8 156
-2 124 -1 155 9 149 9 -5 11 -4 6 3 -4 6 0 24 8 39 8 16 15 22 16 16 0 -7 7
-13 15 -13 12 0 15 20 16 113 1 152 10 223 28 219 24 -5 31 19 32 113 2 125
13 215 24 191 16 -36 35 40 35 144 0 114 9 190 22 190 29 0 36 31 40 157 3
126 4 130 31 155 27 25 27 26 27 156 0 103 3 134 15 146 8 8 15 19 15 24 0 6
6 12 13 14 8 3 13 43 15 142 3 107 7 138 18 143 8 3 14 11 14 19 0 8 5 14 10
14 6 0 10 -4 10 -10 0 -5 5 -10 10 -10 7 0 9 37 4 114 -7 119 0 170 17 131 7
-16 8 -13 5 11 -9 58 14 99 28 52 7 -22 7 -22 16 -3 5 11 9 61 9 110 2 137 12
224 26 219 22 -9 35 47 35 155 0 125 7 172 24 165 25 -10 36 42 38 181 2 103
6 140 15 140 32 0 42 42 45 176 2 97 6 133 15 132 6 -2 15 6 18 17 4 11 11 20
16 20 5 0 9 59 9 138 l0 139 30 26 30 27 0 118 c0 96 4 125 19 155 18 36 19
37 25 12 4 -14 10 -25 15 -25 16 0 22 52 20 189 l-1 136 251 3 c215 2 251 0
251 -12 0 -8 -7 -19 -16 -24 -24 -14 -10 -66 15 -59 17 4 19 -6 26 -112 7
-118 15 -144 41 -134 11 4 14 -4 14 -33 2 -138 18 -226 42 -222 16 4 26 -67
27 -189 1 -76 4 -93 16 -93 10 0 15 10 15 28 0 21 2 24 10 12 5 -8 10 -30 10
-47 0 -18 5 -33 11 -33 9 0 10 -32 6 -115 -5 -100 -3 -115 10 -115 13 0 15 9
11 45 -3 25 -2 45 3 45 5 0 9 -10 9 -23 0 -12 7 -32 15 -44 8 -12 18 -52 21
-90 3 -37 10 -72 15 -77 5 -6 9 -21 9 -33 0 -13 7 -34 15 -46 8 -12 21 -63 29
-114 8 -50 22 -105 30 -122 9 -16 16 -45 16 -63 1 -35 37 -153 40 -128 4 32
18 -38 19 -91 1 -65 24 -132 35 -104 12 32 17 10 25 -109 4 -64 10 -119 14
-122 4 -4 13 -1 22 6 12 10 15 9 15 -6 3 -116 13 -251 20 -258 6 -5 15 -4 23
3 12 10 16 -3 22 -86 3 -54 9 -108 12 -121 6 -25 23 -30 23 -7 0 8 5 15 10 15
6 0 10 -6 10 -14 0 -8 6 -16 13 -19 8 -2 12 -35 13 -110 1 -83 5 -112 19 -133
12 -18 19 -23 25 -14 14 22 20 -18 20 -126 0 -63 4 -104 10 -104 6 0 10 -8 10
-17 1 -16 2 -16 15 1 14 18 15 16 16 -35 4 -168 18 -231 46 -208 11 9 13 0 14
-52 2 -139 13 -219 30 -219 5 0 9 9 9 20 0 11 4 20 9 20 5 0 10 -52 13 -115 3
-91 8 -119 21 -132 11 -11 17 -13 17 -5 0 7 5 12 10 12 6 0 10 -37 10 -90 0
-59 4 -90 11 -90 6 0 8 -7 5 -16 -8 -20 4 -94 15 -94 4 0 10 8 12 18 4 14 6
14 12 -5 4 -13 11 -23 16 -23 5 0 9 -49 9 -110 0 -114 -1 -110 43 -114 21 -2
24 -14 26 -109 1 -51 4 -107 7 -124 6 -34 19 -43 27 -20 10 28 16 -4 18 -92 2
-98 20 -194 33 -173 17 29 26 7 26 -67 0 -43 3 -99 6 -125 6 -40 10 -46 28
-44 20 3 21 -2 27 -107 7 -113 15 -155 30 -155 5 0 9 10 10 23 0 21 1 21 9 2
5 -11 9 -66 9 -122 1 -62 5 -103 11 -103 6 0 10 -8 11 -17 0 -11 3 -13 6 -5 2
6 8 12 13 12 12 0 33 -88 31 -130 -4 -87 -1 -144 9 -154 7 -7 10 -5 10 7 0 30
14 18 32 -26 12 -28 18 -69 18 -124 0 -81 0 -81 30 -95 l30 -13 0 -88 c0 -87
8 -114 47 -155 7 -7 13 -32 13 -54 0 -63 19 -116 39 -111 10 2 23 -3 30 -11
12 -14 79 -16 595 -16 l581 0 -1 -70 c-2 -120 -4 -131 -14 -125 -6 4 -10 -20
-10 -64 0 -39 4 -71 9 -71 5 0 12 -17 16 -37 8 -46 21 -63 46 -63 13 0 19 -7
19 -21 0 -19 21 -49 35 -49 14 0 33 -28 32 -46 -2 -21 29 -31 106 -33 26 0 47
-5 47 -11 0 -5 -7 -10 -15 -10 -29 0 -15 -19 18 -24 54 -8 504 -26 642 -26
118 0 131 2 142 20 7 10 10 25 8 32 -4 9 6 17 27 23 23 7 33 16 31 28 -1 12 9
22 28 29 16 6 29 17 29 27 0 17 16 34 63 64 15 9 27 24 27 31 0 8 11 17 24 20
20 5 24 14 31 68 5 47 9 58 15 43 5 -11 9 -30 9 -42 1 -13 5 -23 10 -23 5 0 9
28 10 63 0 34 3 87 5 117 2 30 5 90 5 133 l1 77 58 0 c64 0 152 25 152 43 0 7
5 5 10 -3 9 -13 11 -13 20 0 9 13 11 13 20 0 5 -8 9 -22 8 -30 0 -8 4 -28 10
-43 7 -16 12 -43 12 -62 0 -20 6 -35 15 -39 8 -3 15 -14 15 -24 0 -10 4 -22
10 -28 5 -5 13 -32 17 -59 3 -28 12 -55 18 -61 6 -7 19 -37 29 -67 13 -42 23
-57 41 -61 13 -3 25 -16 29 -30 4 -17 14 -26 33 -28 15 -2 27 -10 29 -19 6
-47 15 -59 35 -49 15 8 19 7 19 -5 0 -8 7 -15 16 -15 12 0 15 -6 10 -23 -4
-19 -1 -23 22 -27 67 -10 281 0 289 14 4 5 1 12 -5 14 -20 6 -3 22 24 22 13 0
24 5 24 11 0 9 27 10 95 6 74 -4 95 -3 95 8 0 7 -6 12 -14 11 -21 -2 -20 18 1
23 10 2 21 8 25 14 3 6 46 13 95 15 77 4 91 8 108 28 11 13 29 24 40 24 41 0
65 13 71 36 3 13 12 24 19 24 21 0 45 29 39 45 -4 11 1 15 18 15 28 0 48 17
48 42 0 14 8 18 34 18 29 0 36 5 45 31 6 17 19 33 30 36 16 4 20 17 26 72 6
64 -2 392 -11 400 -2 2 -10 -11 -17 -29 l-14 -32 -6 38 c-4 22 -7 53 -7 71 0
17 -4 35 -10 38 -26 16 6 95 39 95 5 0 11 7 15 15 3 8 15 15 26 15 33 0 60 19
60 40 0 15 7 20 25 20 18 0 25 -5 25 -20 0 -11 7 -23 15 -26 8 -4 15 -14 15
-24 0 -31 11 -50 30 -50 11 0 22 -12 28 -29 6 -17 24 -37 42 -46 24 -13 29
-19 20 -30 -8 -10 -4 -16 20 -26 23 -11 28 -18 24 -33 -5 -15 -3 -18 11 -13
13 5 20 -2 32 -32 10 -27 23 -41 37 -43 11 -2 20 -9 18 -16 -3 -17 19 -39 44
-44 11 -2 18 -11 16 -20 -3 -20 12 -30 57 -37 18 -3 33 -9 32 -13 0 -5 8 -17
19 -28 16 -16 33 -20 86 -20 66 0 84 8 97 43 4 10 17 17 31 17 37 0 76 21 74
39 -2 11 7 17 32 21 27 4 36 10 38 27 3 18 12 24 41 29 55 9 68 18 52 38 -12
14 -10 16 16 16 16 0 33 3 37 7 4 5 13 8 19 8 7 0 11 11 10 23 -2 17 2 22 19
22 11 0 27 8 34 18 10 14 15 15 25 4 17 -16 49 -15 49 2 0 9 -7 12 -19 9 -28
-7 -36 16 -9 26 13 5 40 27 61 50 21 22 42 41 48 41 16 0 36 24 32 36 -2 7 10
17 27 22 17 7 34 22 40 37 5 14 13 25 17 24 31 -5 45 2 40 21 -4 16 2 24 28
34 27 12 34 21 37 48 2 27 7 33 28 33 24 0 25 2 28 76 2 65 0 78 -19 100 -26
30 -39 62 -39 99 0 34 -15 47 -35 30 -16 -13 -15 -15 -20 40 -3 45 -16 70 -35
70 -13 0 -22 9 -26 28 -11 51 -23 72 -39 66 -11 -5 -15 1 -15 22 0 15 -8 36
-17 46 -14 16 -15 21 -4 27 7 5 12 14 9 21 -3 9 -9 8 -21 -4 -16 -16 -18 -16
-27 9 -5 14 -10 31 -10 37 0 6 -7 20 -16 29 -16 17 -15 19 12 29 45 16 59 26
56 43 -1 10 10 16 38 21 22 3 40 12 40 19 0 9 2 9 9 -1 4 -8 27 -16 50 -19 30
-4 41 -10 39 -21 -4 -19 37 -42 75 -42 16 0 27 -5 27 -14 0 -15 26 -40 44 -42
6 0 22 -2 34 -2 14 -1 22 -7 19 -14 -6 -19 23 -37 60 -38 24 0 36 -7 51 -31
10 -17 22 -30 26 -30 29 4 57 -1 70 -14 8 -8 21 -15 30 -15 8 0 18 -4 21 -10
3 -5 -1 -10 -9 -10 -9 0 -16 -4 -16 -9 0 -9 103 -19 134 -13 23 5 20 22 -5 22
-11 0 -17 5 -14 10 3 5 15 10 26 10 10 0 19 4 19 9 0 5 10 11 23 15 13 3 29
17 37 31 7 14 20 25 28 25 7 0 19 13 25 30 10 27 24 35 50 31 5 -1 14 12 20
29 6 16 18 30 25 30 8 0 19 13 25 29 6 16 21 34 34 40 15 7 23 19 23 37 0 18
6 28 21 31 12 4 18 11 15 20 -3 7 1 16 9 19 8 3 17 15 21 26 8 25 40 58 49 50
3 -3 8 4 12 16 3 12 10 19 16 15 6 -4 8 2 4 16 -4 15 1 26 14 34 10 6 19 18
19 25 0 7 7 15 15 18 8 4 15 16 15 28 0 12 9 25 23 31 12 6 23 20 25 33 2 16
14 27 33 34 30 10 37 22 19 33 -10 6 19 45 35 45 21 0 35 57 35 144 0 92 -16
160 -35 152 -6 -2 -17 5 -23 15 -7 10 -22 19 -35 19 -22 1 -22 1 -2 16 12 10
14 14 5 12 -8 -3 -20 2 -25 9 -6 8 -19 15 -30 17 -11 2 -22 13 -25 27 -4 16
-14 25 -31 27 -14 2 -29 12 -34 25 -6 12 -20 26 -32 32 -13 5 -23 14 -23 20 0
6 -15 19 -32 30 -48 28 -71 52 -59 60 21 12 11 22 -19 17 -39 -6 -65 19 -50
48 8 15 8 20 -2 21 -7 1 -20 2 -28 3 -8 2 -25 3 -37 4 -29 2 -30 18 -3 27 12
4 23 18 26 35 4 16 14 30 25 33 11 3 19 14 19 25 0 12 5 24 10 27 6 3 10 18
11 33 0 26 1 26 9 5 5 -13 11 -23 12 -23 43 -6 93 -10 183 -16 96 -5 107 -8
90 -20 -10 -8 -15 -17 -11 -21 13 -14 356 -16 356 -3 0 6 5 8 10 5 13 -8 13 8
0 21 -7 7 2 14 30 23 33 10 40 16 35 31 -4 13 0 20 15 25 11 3 20 11 20 17 0
6 9 8 20 5 11 -3 20 -1 20 4 0 5 -5 9 -10 9 -16 0 23 49 38 50 18 0 42 25 42
44 0 9 8 16 19 16 30 0 39 21 47 103 4 42 10 77 15 77 17 0 39 66 39 119 0 69
8 101 25 101 8 0 16 10 18 23 4 19 4 18 6 -5 0 -17 7 -28 15 -28 12 0 14 19 9
110 -4 80 -3 110 6 110 6 0 11 11 11 24 0 14 5 28 10 31 6 3 10 -3 10 -14 0
-27 17 -35 23 -11 3 11 4 64 4 117 -2 96 -2 98 -30 111 -18 9 -30 24 -34 44
-4 22 -14 34 -35 42 -17 6 -28 18 -28 29 0 11 -12 23 -30 31 -17 7 -27 15 -24
19 14 14 -20 37 -55 37 -40 0 -67 13 -58 27 10 16 -39 33 -93 33 -27 0 -55 6
-62 13 -31 29 -70 47 -104 47 -25 0 -55 11 -88 32 -28 17 -51 32 -51 32 0 1 2
50 5 109 l5 108 60 4 c216 12 341 19 348 17 4 -1 7 2 7 7 0 14 -27 21 -77 21
-72 0 -47 7 50 14 100 7 107 9 107 36 0 12 9 22 25 26 13 3 27 15 31 26 7 22
40 58 52 57 4 0 11 14 16 31 8 28 13 31 38 26 22 -4 28 -2 29 12 1 9 2 24 3
32 1 10 14 16 40 18 l39 3 -6 372 c-6 334 -15 489 -31 504 -3 3 -11 1 -19 -5
-10 -9 -16 -2 -25 33 -8 29 -18 46 -32 50 -11 3 -20 15 -20 25 0 13 -10 22
-32 28 -18 4 -33 15 -33 23 0 24 -19 36 -70 41 -27 4 -51 11 -53 17 -5 14 -52
15 -52 1 0 -16 -90 -12 -106 5 -9 8 -26 15 -39 15 -13 0 -30 -7 -39 -15 -17
-17 -93 -20 -98 -4 -2 5 -22 13 -44 16 -31 4 -45 1 -59 -13 -12 -13 -33 -18
-69 -19 -45 0 -51 2 -54 22 -3 17 0 21 12 17 12 -4 16 0 16 15 0 12 -6 21 -14
21 -10 0 -16 24 -22 88 -8 80 -11 87 -31 90 -28 4 -31 32 -4 32 23 0 54 28 45
41 -7 12 10 17 66 22 42 3 45 5 43 30 -2 26 0 27 50 27 65 0 87 11 67 35 -11
14 -10 17 8 22 12 3 22 9 22 14 0 5 14 6 30 3 31 -7 39 3 19 23 -8 8 -3 15 18
27 17 8 36 29 43 46 9 21 19 30 36 30 16 0 24 6 24 18 0 23 19 42 41 42 10 0
20 11 25 28 5 21 8 23 11 9 4 -14 9 -9 24 20 15 29 19 58 19 131 0 101 -10
132 -40 132 -16 0 -20 7 -20 34 0 46 -29 114 -40 95 -8 -11 -10 -11 -14 1 -7
22 -18 101 -18 129 0 17 -3 20 -11 12 -19 -19 -37 -12 -37 13 0 14 -5 28 -11
32 -6 3 -9 20 -6 38 3 17 2 40 -3 51 -5 11 -9 14 -9 8 -3 -45 -51 34 -51 83 0
23 -5 34 -15 34 -8 0 -12 6 -9 14 3 8 1 17 -5 21 -6 3 -11 1 -11 -4 0 -25 -17
-8 -30 32 -11 30 -21 43 -37 45 -16 2 -23 10 -23 27 0 18 -7 24 -35 29 -24 5
-39 15 -47 31 -13 30 -33 35 -129 31 -74 -3 -115 -18 -104 -36 8 -14 -6 -18
-75 -21 -67 -3 -103 -20 -93 -45 4 -11 -8 -14 -60 -14 -83 0 -148 -27 -104
-43 18 -7 -8 -14 -76 -22 -56 -6 -58 -8 -53 -31 5 -17 2 -24 -8 -24 -9 0 -16
17 -20 49 -4 29 -12 51 -21 55 -8 3 -15 1 -15 -4 0 -6 -4 -10 -10 -10 -5 0
-10 14 -10 31 0 27 -20 60 -35 59 -21 -1 -25 3 -25 28 -1 28 -20 62 -36 62 -5
0 -15 9 -21 19 -14 22 -5 33 35 45 16 6 22 15 22 37 0 25 6 32 31 41 23 8 29
15 26 29 -3 11 -1 20 4 20 5 1 14 3 19 4 6 1 15 3 20 4 6 0 10 12 10 26 0 20
6 27 30 32 23 4 30 11 30 29 0 17 6 24 19 24 19 0 36 25 32 48 -1 6 5 12 12
12 8 0 20 7 27 15 10 13 15 13 21 3 4 -7 11 -9 15 -5 4 4 -1 13 -11 21 -18 13
-18 14 4 25 12 7 26 23 31 36 6 16 15 23 24 19 26 -10 36 32 36 161 0 102 -3
127 -15 131 -8 4 -15 14 -16 23 0 12 -2 11 -9 -4 -8 -21 -9 -21 -25 30 -2 8
-13 15 -24 15 -13 0 -23 9 -27 24 -3 14 -15 27 -29 30 -13 3 -26 15 -30 25 -3
11 -12 22 -20 25 -8 3 -15 12 -15 20 0 7 -7 16 -15 20 -9 3 -12 12 -9 23 4 14
3 15 -4 4 -8 -10 -12 -9 -23 6 -8 11 -23 23 -34 27 -13 5 -15 10 -7 13 6 3 12
9 12 14 0 4 -7 6 -15 3 -8 -4 -15 -1 -15 4 0 6 -9 14 -20 17 -15 5 -19 12 -15
26 5 14 3 17 -9 13 -9 -3 -16 -2 -16 4 0 5 -12 13 -26 16 -20 5 -23 10 -14 20
9 11 3 18 -29 32 -34 15 -39 20 -28 33 8 10 8 12 1 8 -7 -4 -14 0 -18 8 -3 8
-12 15 -20 15 -9 0 -22 14 -31 30 -9 17 -21 30 -29 30 -7 0 -23 14 -36 30
l-23 30 -108 0 -108 0 -21 -30 c-13 -19 -30 -30 -44 -30 -26 0 -48 -21 -44
-41 2 -9 -8 -15 -24 -17 -20 -2 -28 -10 -33 -33 -5 -22 -12 -29 -30 -29 -25 0
-50 -24 -41 -39 4 -6 -10 -13 -31 -17 -46 -8 -64 -21 -56 -39 3 -9 -5 -17 -23
-21 -32 -8 -64 -34 -43 -34 8 0 5 -7 -7 -19 -10 -10 -22 -18 -26 -17 -4 0 -16
-15 -26 -34 -15 -27 -26 -35 -48 -35 -18 0 -28 5 -26 13 1 6 -3 12 -9 12 -6 0
-8 8 -4 19 7 22 -10 37 -21 20 -5 -9 -11 -7 -20 5 -7 10 -16 18 -21 19 -4 1
-7 10 -6 19 2 13 -9 21 -42 29 -36 9 -44 15 -42 33 2 18 -4 21 -45 24 -49 3
-55 11 -42 47 6 13 9 14 16 3 13 -21 38 19 38 63 0 52 11 100 21 93 5 -3 9 2
9 10 0 9 5 16 10 16 6 0 10 -7 10 -15 0 -23 19 -18 24 8 3 12 7 50 9 84 3 60
15 92 24 66 10 -27 33 1 34 41 0 22 4 59 8 81 8 39 8 39 15 13 13 -44 23 -33
30 31 11 95 -10 178 -31 124 -5 -12 -11 0 -18 37 -9 45 -14 56 -33 58 -27 4
-29 22 -2 22 37 0 20 16 -30 29 -40 10 -49 16 -47 33 1 12 -4 22 -13 23 -32 6
-74 28 -63 32 23 8 -13 33 -49 33 -49 0 -77 10 -72 25 8 19 -27 35 -75 35 -32
0 -43 5 -52 23 -17 31 -28 37 -76 37 -33 0 -46 6 -66 30 -18 21 -35 30 -55 30
-16 0 -35 7 -42 15 -7 8 -19 15 -26 15 -8 0 -14 5 -14 10 0 6 7 10 15 10 8 0
15 4 15 9 0 5 -18 7 -41 4 -27 -4 -44 -2 -49 6 -9 16 -157 18 -173 2 -6 -6
-21 -11 -33 -11 -15 0 -24 -8 -28 -25 -4 -15 -17 -30 -31 -35 -14 -5 -30 -21
-37 -35 -6 -14 -15 -25 -20 -25 -12 0 -38 -26 -38 -38 0 -6 -13 -16 -30 -24
-28 -12 -34 -21 -31 -40 0 -4 -11 -11 -26 -15 -33 -8 -54 -27 -51 -45 2 -7 -7
-14 -19 -16 -21 -3 -35 -29 -47 -84 -4 -16 -11 -28 -17 -28 -20 0 -39 -29 -39
-59 0 -21 -5 -31 -15 -31 -8 0 -15 -4 -15 -8 0 -11 -39 -52 -49 -52 -7 0 -20
9 -67 49 -22 18 -99 40 -108 30 -6 -5 -17 -9 -25 -9 -14 0 -16 35 -14 302 3
312 1 328 -38 328 -14 0 -19 7 -19 25 0 18 -7 26 -25 31 -18 4 -25 13 -25 30
0 13 -6 24 -12 24 -7 0 -24 13 -38 30 -21 25 -35 31 -85 36 -33 4 -66 13 -73
21 -8 7 -35 13 -63 13 -28 0 -58 4 -67 9 -17 8 -494 19 -583 13z m361 -1522
c0 -5 -16 -10 -37 -10 -45 0 -41 -7 7 -11 19 -2 38 -7 41 -11 3 -5 74 -11 157
-15 110 -4 152 -10 152 -18 0 -19 47 -33 122 -38 43 -3 73 -10 83 -21 9 -9 23
-17 31 -17 27 -3 32 -4 40 -11 4 -5 26 -8 49 -8 23 0 50 -7 61 -15 10 -8 29
-15 42 -15 12 0 25 -7 28 -15 4 -10 20 -15 46 -15 22 0 46 -7 54 -15 9 -8 26
-15 39 -15 13 0 27 -4 30 -10 4 -6 -7 -10 -24 -10 -22 0 -31 -5 -31 -16 0 -12
6 -15 23 -9 47 14 100 14 121 0 11 -8 29 -15 40 -15 16 0 17 -3 8 -12 -25 -25
-16 -29 91 -43 41 -5 46 -9 36 -21 -17 -20 -7 -26 53 -31 73 -6 100 -12 93
-22 -14 -24 8 -41 54 -41 53 0 66 -7 50 -26 -14 -17 25 -34 77 -34 20 0 34 -5
34 -12 1 -32 23 -45 77 -47 14 -1 28 -12 38 -31 12 -24 22 -30 48 -30 37 0 70
-36 42 -46 -31 -12 -14 -24 25 -18 25 4 40 3 40 -4 0 -5 10 -13 23 -16 21 -6
21 -7 4 -20 -16 -13 -15 -15 14 -25 18 -6 43 -11 57 -11 18 0 23 -4 18 -16
-10 -25 12 -44 50 -44 29 0 34 -3 34 -25 0 -20 6 -25 34 -31 25 -4 36 -12 40
-30 4 -13 13 -25 21 -25 8 -1 20 -3 25 -4 6 -1 14 -3 19 -4 5 0 12 -12 15 -25
3 -13 16 -26 28 -30 13 -3 34 -23 48 -46 14 -22 30 -40 36 -40 7 0 15 -11 18
-25 4 -15 16 -27 31 -31 14 -3 25 -14 27 -27 2 -13 13 -23 28 -27 18 -4 26
-14 28 -32 2 -18 11 -28 28 -32 13 -4 24 -13 24 -21 0 -8 9 -23 20 -32 11 -10
20 -21 20 -26 0 -11 26 -37 37 -37 5 0 13 -10 18 -22 6 -13 20 -27 33 -33 12
-5 22 -15 22 -21 0 -5 14 -23 30 -39 17 -16 30 -38 30 -49 0 -10 7 -28 17 -38
9 -11 11 -18 5 -18 -7 0 -12 -7 -12 -15 0 -8 7 -15 15 -15 8 0 15 5 15 10 0 6
5 10 10 10 6 0 10 -9 10 -21 0 -12 14 -34 30 -49 17 -15 30 -34 30 -42 0 -25
25 -68 37 -64 12 5 23 -15 23 -39 0 -8 5 -26 10 -40 9 -23 13 -25 25 -15 8 7
15 9 16 4 3 -38 13 -60 34 -78 14 -12 25 -27 25 -34 0 -7 4 -12 9 -12 5 0 11
-9 14 -20 7 -25 -20 -27 -39 -2 -11 15 -31 17 -171 17 l-158 0 -2 120 c-3 145
-10 154 -110 155 l-62 0 4 80 c2 44 -1 82 -5 85 -5 3 -48 6 -96 7 -97 1 -103
-3 -105 -67 0 -22 -1 -55 -2 -74 l-2 -35 -61 3 c-96 4 -163 -47 -124 -94 23
-28 4 -43 -56 -44 -35 0 -61 -5 -66 -13 -4 -7 -8 -41 -8 -75 0 -67 -1 -69 -31
-52 -14 7 -30 7 -55 -1 -23 -8 -39 -8 -47 -2 -7 5 -73 9 -150 9 -124 -1 -139
-3 -148 -19 -6 -12 -17 -17 -28 -13 -15 5 -17 -3 -13 -87 2 -51 -1 -113 -7
-138 -9 -42 -8 -47 16 -72 l27 -28 -82 0 c-77 0 -83 -2 -91 -22 -5 -13 -7 -40
-4 -60 l4 -38 -43 0 c-33 0 -39 3 -30 12 16 16 16 80 0 96 -7 7 -42 12 -85 12
-52 0 -73 4 -73 13 0 7 10 17 22 22 32 14 33 33 4 41 -14 3 -26 12 -26 20 0
11 28 14 150 14 176 0 169 -5 165 118 -3 109 -11 115 -155 122 -58 3 -125 2
-150 -1 -25 -4 -53 -2 -63 3 -10 5 -21 7 -24 5 -3 -3 -7 -41 -9 -84 l-3 -78
-48 -1 c-64 -2 -73 -17 -73 -126 0 -86 1 -89 26 -98 14 -6 44 -10 67 -10 29 0
38 -3 30 -11 -12 -12 -5 -52 8 -43 5 3 9 -2 9 -10 0 -14 -18 -16 -125 -16
-116 0 -125 1 -125 19 0 10 7 21 15 25 8 3 15 15 15 26 0 38 -23 50 -99 50
-65 0 -87 9 -60 25 10 7 11 99 1 137 -7 28 -60 37 -200 34 -121 -3 -135 -6
-153 -25 -11 -12 -24 -19 -30 -16 -5 4 -9 -19 -9 -53 0 -53 2 -60 25 -70 45
-21 28 -32 -49 -32 -87 0 -106 -5 -106 -31 0 -10 -4 -19 -10 -19 -15 0 -12
-19 5 -36 27 -27 16 -34 -49 -34 -36 0 -76 -4 -90 -10 -23 -8 -26 -15 -26 -60
0 -50 0 -50 -32 -51 -18 -1 -36 -1 -40 0 -5 0 -8 -3 -8 -9 0 -5 -8 -10 -18
-10 -35 0 -44 -39 -40 -173 l3 -127 -142 0 c-130 0 -143 -2 -153 -19 -11 -21
-14 -318 -4 -345 5 -13 23 -16 90 -16 l84 0 0 -28 0 -27 -127 2 c-136 3 -173
-5 -173 -39 0 -11 -4 -16 -10 -13 -7 4 -10 -49 -10 -153 0 -126 3 -162 14
-171 10 -9 67 -12 195 -10 l180 2 12 35 c11 32 10 37 -12 53 -13 10 -21 20
-18 23 6 6 134 11 202 8 40 -2 49 -17 16 -27 -16 -5 -20 -14 -17 -43 2 -29 8
-38 28 -43 41 -11 187 -10 214 2 31 15 42 55 21 78 -24 27 -19 31 40 31 42 0
53 -3 49 -14 -3 -8 -14 -16 -25 -19 -14 -4 -19 -14 -19 -36 0 -17 5 -31 10
-31 6 0 10 -7 10 -15 0 -8 -4 -15 -10 -15 -5 0 -10 -13 -10 -28 0 -21 7 -32
25 -40 35 -16 31 -32 -7 -26 -18 3 -58 1 -88 -3 l-55 -8 0 -60 c0 -63 0 -62
-55 -56 -5 1 -7 19 -5 44 4 29 1 48 -9 61 -14 18 -32 19 -271 19 -288 1 -275
5 -275 -75 l0 -48 -44 0 c-29 0 -52 -7 -70 -21 -23 -18 -26 -27 -26 -83 0 -35
5 -67 12 -74 9 -9 0 -12 -43 -13 -53 0 -93 -5 -116 -14 -18 -6 -28 -72 -13
-90 8 -9 11 -42 9 -92 -2 -43 -2 -125 -1 -183 l2 -105 35 -19 c24 -13 46 -17
75 -13 l40 5 0 -50 c0 -90 -10 -86 231 -85 l212 2 -2 -143 c-2 -138 -2 -144
18 -149 12 -3 21 -9 21 -13 0 -5 29 -8 65 -7 36 1 65 0 65 -2 0 -3 -8 -13 -17
-23 -16 -18 -18 -52 -20 -316 -2 -163 0 -321 3 -350 5 -47 9 -55 34 -63 19 -7
26 -15 23 -27 -4 -16 10 -18 155 -18 l160 0 6 44 c3 25 6 68 6 96 l0 51 67 -3
c58 -3 71 0 91 18 21 20 22 29 22 155 l0 135 28 0 27 0 0 -138 c0 -103 4 -143
14 -155 10 -13 31 -17 97 -17 98 0 96 -3 98 129 1 63 5 85 14 84 16 -4 17 84
0 89 -7 3 -13 22 -13 44 l1 39 -66 -3 -65 -3 0 185 0 186 56 0 c73 0 96 23 95
97 -1 28 -4 47 -7 41 -6 -9 -19 13 -19 30 0 4 37 7 81 7 73 1 83 3 100 24 25
31 28 174 4 198 -27 27 -11 38 59 41 57 2 69 6 73 22 5 18 6 18 21 3 15 -14
17 -13 26 13 6 20 6 29 -2 32 -15 5 -16 32 -2 32 6 0 10 11 10 25 0 14 -4 25
-10 25 -5 0 -10 5 -10 10 0 6 24 10 54 10 30 0 58 5 61 10 4 6 11 8 16 5 5 -4
9 27 9 74 0 47 4 81 10 81 6 0 10 -9 10 -19 0 -14 9 -20 38 -23 20 -3 38 -1
40 3 2 4 10 5 18 2 8 -3 14 1 14 11 0 9 -8 16 -17 16 -17 1 -17 1 -1 10 23 14
41 75 34 116 -6 31 -5 34 18 34 32 0 60 -11 48 -19 -5 -3 -12 -36 -14 -73 -6
-66 -5 -68 17 -68 14 0 26 -8 30 -19 4 -15 13 -17 54 -13 l48 4 5 -51 c7 -76
15 -81 123 -81 88 0 92 1 103 25 6 14 16 25 22 25 5 0 10 11 10 25 0 14 -4 25
-10 25 -5 0 -10 6 -10 13 0 10 15 13 50 13 48 -1 69 12 54 35 -3 5 4 9 15 9
11 0 26 10 32 22 17 31 23 94 10 103 -29 17 -1 23 113 23 l123 -1 1 -229 c0
-162 4 -234 13 -244 7 -8 30 -14 58 -14 l47 0 0 -119 c-1 -69 3 -124 9 -130 6
-6 44 -13 85 -16 40 -3 76 -7 78 -9 2 -3 -6 -14 -18 -26 -14 -14 -19 -28 -15
-41 4 -11 2 -19 -4 -19 -6 0 -11 -13 -11 -30 0 -20 5 -30 15 -30 8 0 15 6 15
12 0 7 7 3 15 -8 12 -18 26 -21 94 -23 116 -3 123 3 120 97 l-2 77 47 -3 c26
-2 69 2 97 8 48 12 49 13 49 50 0 22 -4 42 -10 45 -24 15 -6 25 44 25 88 0 86
-3 86 119 -1 77 -5 111 -15 125 -8 11 -15 16 -15 12 0 -5 -7 -3 -15 4 -15 13
-267 17 -305 5 -21 -7 -36 -86 -28 -150 l4 -35 -43 0 c-32 0 -43 4 -43 15 0 8
4 15 10 15 6 0 11 67 12 168 3 143 5 166 18 163 8 -2 58 -5 110 -5 67 -1 99 3
109 12 12 11 12 15 1 22 -8 5 2 10 28 15 34 5 42 11 46 33 8 45 4 202 -5 208
-21 13 6 24 57 24 31 0 54 4 54 11 0 5 5 7 10 4 6 -4 10 47 10 147 l0 153 55
0 c38 0 59 5 65 15 16 27 20 105 16 348 -2 189 -1 242 9 242 7 0 16 -11 19
-26 6 -21 11 -24 34 -21 48 8 72 19 72 33 0 8 7 14 16 14 8 0 12 -5 9 -10 -4
-6 -1 -17 5 -25 10 -12 10 -21 0 -44 -9 -23 -9 -33 2 -50 21 -34 30 -25 27 27
-2 27 1 46 6 45 6 -2 11 -55 13 -119 2 -85 7 -121 18 -131 25 -25 15 -33 -41
-33 -91 0 -95 -9 -95 -195 l0 -154 -54 1 c-51 1 -59 -2 -101 -40 -27 -24 -14
-164 17 -184 16 -10 169 -10 184 0 20 13 44 70 44 103 0 20 -9 42 -22 56 l-21
23 60 0 c34 0 68 3 77 6 14 6 16 -32 16 -382 l-1 -389 -25 52 -25 52 -66 -4
c-36 -2 -68 -6 -70 -9 -3 -3 -8 -55 -11 -116 -6 -135 -1 -144 85 -148 66 -4
75 -8 50 -26 -15 -12 -17 -32 -17 -169 0 -158 -4 -175 -37 -163 -12 5 -14 9
-5 18 34 34 -9 128 -57 128 -11 0 -23 5 -26 10 -4 6 5 10 19 10 14 0 26 4 26
10 0 6 -59 10 -155 9 -91 0 -155 -4 -155 -10 0 -5 14 -9 31 -9 17 0 28 -4 24
-10 -3 -5 -21 -10 -39 -10 -45 0 -61 -22 -62 -89 l-1 -56 -141 2 -141 3 -7
-46 c-3 -25 -4 -65 -1 -90 l5 -44 -53 0 c-69 0 -84 -7 -101 -44 l-13 -31 -1
28 c0 16 -6 27 -14 27 -11 0 -14 -28 -14 -144 0 -140 0 -143 21 -142 16 1 22
-5 22 -19 0 -13 -6 -19 -16 -17 -20 3 -29 -25 -29 -90 0 -36 4 -48 15 -48 9 0
15 10 16 23 1 21 1 21 12 -4 28 -61 26 -60 209 -58 l169 2 10 26 c6 14 14 46
19 71 7 36 5 46 -8 57 -14 10 3 12 96 13 110 0 112 0 100 -20 -10 -16 -10 -24
0 -40 15 -25 16 -72 0 -88 -7 -7 -14 -31 -15 -55 -3 -45 -19 -93 -39 -117 -6
-8 -15 -30 -19 -48 -3 -17 -11 -32 -16 -32 -5 0 -9 -7 -9 -15 0 -8 -7 -15 -16
-15 -10 0 -14 -6 -10 -15 3 -9 -3 -19 -15 -25 -13 -8 -18 -17 -14 -29 4 -14
-1 -20 -20 -25 -27 -7 -45 -40 -45 -82 0 -13 -4 -24 -10 -24 -5 0 -10 6 -10
14 0 8 -4 17 -9 20 -4 3 -6 -6 -3 -19 2 -15 0 -25 -7 -25 -6 0 -11 -17 -11
-38 0 -31 -6 -43 -30 -60 -20 -15 -30 -31 -30 -48 0 -21 -4 -25 -20 -21 -11 3
-18 1 -15 -3 3 -5 -2 -15 -10 -23 -8 -9 -15 -27 -15 -41 0 -16 -6 -26 -15 -26
-8 0 -15 -5 -15 -11 0 -5 -4 -8 -9 -5 -5 3 -12 -10 -15 -30 -6 -30 -10 -34
-28 -29 -17 6 -19 4 -14 -13 4 -13 1 -22 -9 -26 -8 -3 -15 -16 -15 -30 0 -24
-16 -36 -52 -36 -17 0 -19 -5 -13 -29 5 -25 2 -33 -19 -46 -14 -10 -26 -26
-26 -36 0 -12 -10 -23 -25 -29 -14 -5 -30 -21 -35 -34 -5 -14 -19 -26 -32 -28
-14 -2 -24 -11 -26 -23 -1 -11 -16 -26 -32 -34 -17 -7 -30 -20 -30 -31 0 -15
-21 -29 -55 -34 -5 -1 -9 -9 -7 -19 4 -26 -24 -50 -49 -42 -19 6 -21 4 -16
-14 3 -11 1 -21 -4 -21 -5 0 -9 -7 -9 -16 0 -12 -7 -15 -30 -12 -23 4 -30 1
-26 -9 7 -16 -14 -53 -30 -53 -18 0 -51 -34 -47 -47 3 -9 -6 -13 -27 -13 -26
0 -34 -5 -43 -30 -8 -21 -18 -30 -33 -30 -26 0 -54 -24 -54 -46 0 -9 -11 -14
-34 -14 -35 0 -59 -18 -54 -41 2 -10 -10 -15 -36 -17 -41 -4 -65 -19 -59 -38
4 -12 -26 -23 -81 -30 -33 -4 -47 -15 -28 -21 6 -3 12 -8 12 -12 0 -11 -73
-35 -99 -32 -19 2 -22 -1 -17 -14 6 -18 -28 -54 -52 -55 -7 0 -24 -11 -37 -25
-13 -15 -39 -29 -59 -32 -20 -3 -46 -16 -59 -28 -12 -13 -42 -27 -67 -32 -31
-6 -48 -15 -54 -30 -8 -16 -22 -22 -68 -27 -32 -4 -58 -11 -58 -16 0 -6 -8
-10 -17 -11 -15 0 -15 -2 2 -9 27 -11 9 -17 -80 -25 -67 -6 -105 -22 -77 -32
29 -11 -4 -23 -63 -23 -62 0 -115 -15 -115 -32 0 -4 7 -8 15 -8 8 0 15 -4 15
-9 0 -5 -51 -11 -114 -13 -63 -1 -118 -6 -122 -10 -4 -4 -2 -14 4 -21 15 -17
6 -27 -25 -27 -12 0 -23 -5 -23 -11 0 -7 -32 -10 -97 -7 -90 3 -98 1 -98 -15
0 -40 -30 -47 -194 -47 -162 0 -218 -9 -247 -38 -16 -15 -53 -17 -406 -17
-260 0 -391 3 -396 10 -18 27 -115 45 -241 45 -105 0 -134 3 -167 19 -31 16
-36 21 -21 26 9 4 17 12 17 17 0 10 -163 4 -180 -7 -5 -3 -15 2 -23 10 -9 8
-20 15 -26 15 -6 0 -11 7 -11 16 0 11 6 14 20 9 14 -4 20 -2 20 9 0 8 -10 16
-22 18 -33 5 -48 44 -48 131 0 50 -4 76 -10 72 -5 -3 -10 -2 -10 4 0 5 -8 17
-17 27 -13 12 -19 38 -21 91 -3 40 -8 73 -13 73 -5 0 -9 13 -9 30 0 19 -7 33
-20 40 -14 8 -20 21 -20 46 0 45 -29 146 -40 139 -4 -3 -11 20 -15 50 -3 30
-11 57 -16 60 -5 4 -9 15 -9 26 0 21 -16 26 -23 7 -3 -7 -6 18 -6 56 -1 77
-20 186 -33 186 -4 0 -8 -9 -8 -20 0 -11 -4 -20 -10 -20 -6 0 -10 44 -10 111
0 71 -4 108 -10 104 -5 -3 -10 1 -10 9 0 9 -4 16 -10 16 -5 0 -10 -4 -10 -10
0 -5 -4 -10 -10 -10 -6 0 -10 33 -10 78 0 102 -11 212 -21 212 -4 0 -9 -16
-11 -35 -6 -69 -23 -41 -26 43 l-3 82 30 0 c16 0 36 3 45 6 14 5 16 -4 16 -61
0 -42 4 -64 10 -60 6 3 13 -1 16 -9 5 -13 23 -16 84 -16 139 0 154 15 150 148
-2 37 -2 150 -1 251 l1 183 35 -4 c24 -3 35 0 35 9 0 12 12 17 32 14 11 -1 26
92 21 127 l-5 32 60 0 c76 0 85 11 86 101 l1 69 82 0 82 0 7 45 c3 25 4 57 1
71 -5 26 -5 26 59 22 l64 -3 0 155 0 155 46 -4 c52 -4 94 14 94 40 0 10 5 21
10 24 6 3 10 -2 10 -11 0 -10 3 -14 6 -11 10 10 13 317 3 317 -5 0 -9 -4 -9
-10 0 -23 -19 -8 -22 18 l-3 27 -130 3 -130 3 -2 51 c-1 29 -8 55 -15 60 -7 4
-46 8 -86 8 l-74 0 7 40 c4 22 1 64 -6 95 l-12 55 -46 1 c-25 0 -84 0 -131 0
-47 0 -148 0 -225 0 -77 1 -151 0 -165 -1 -56 -4 -77 -3 -111 4 -34 7 -37 6
-47 -21 -8 -22 -11 4 -11 114 l-1 142 -32 6 c-18 3 -90 4 -161 3 l-127 -3 0
135 c1 114 3 132 14 118 11 -15 30 -18 125 -18 67 0 111 -4 111 -10 0 -5 -4
-10 -10 -10 -5 0 -10 -17 -10 -38 0 -52 29 -67 127 -66 l73 1 0 -67 c0 -37 5
-80 10 -96 10 -27 14 -29 65 -29 30 0 55 4 55 9 0 5 14 6 30 3 22 -5 30 -3 30
8 0 9 -14 15 -37 18 -21 2 -15 3 15 2 38 -1 52 2 52 12 0 7 -3 13 -7 13 -5 0
-9 43 -10 96 -1 53 -5 99 -8 102 -3 3 -41 6 -84 7 l-77 0 3 109 c2 66 -1 114
-8 122 -7 8 -7 14 1 19 13 8 13 82 0 90 -24 15 3 20 92 18 51 -1 125 1 164 4
64 5 73 8 83 30 14 31 15 363 1 363 -5 0 -10 8 -10 19 0 15 10 19 66 24 36 2
68 8 72 12 4 4 6 56 6 117 -1 82 -5 113 -15 119 -8 5 -42 9 -76 9 -56 0 -61 2
-56 20 3 11 9 20 14 20 4 0 7 46 6 101 -2 93 -4 103 -24 117 -13 8 -23 20 -23
27 0 18 -43 37 -75 33 -21 -2 -31 -10 -36 -28 -5 -19 -7 -13 -9 25 -2 72 -10
109 -23 117 -7 4 -45 8 -85 8 -65 0 -73 2 -70 18 2 9 9 18 16 18 6 1 17 2 23
3 5 0 9 16 7 34 -3 36 0 34 -118 45 l-75 7 0 53 0 52 67 0 c56 0 69 3 81 20
12 18 15 18 20 5 4 -8 11 -15 16 -15 7 0 10 113 8 320 -1 248 -5 320 -14 320
-7 0 -13 -12 -14 -27 l-1 -28 -9 31 c-18 62 -33 67 -195 67 -80 -1 -148 -4
-151 -7 -4 -3 -8 -42 -11 -86 l-5 -80 -51 0 c-65 0 -96 -9 -96 -26 0 -8 -7
-14 -15 -14 -8 0 -15 -7 -15 -15 0 -8 6 -15 14 -15 14 0 31 -45 21 -59 -3 -5
-136 -9 -296 -9 -191 -1 -296 -5 -302 -11 -6 -6 -19 -11 -29 -11 -16 0 -18 -9
-18 -75 0 -43 4 -75 10 -75 6 0 10 27 10 62 0 101 9 61 15 -67 l6 -120 -57 -2
-56 -2 6 40 c4 24 2 39 -4 39 -5 0 -10 -15 -10 -34 0 -19 -4 -37 -9 -40 -9 -6
-21 49 -21 97 0 15 -4 27 -10 27 -6 0 -7 23 -3 60 4 42 2 60 -6 60 -6 0 -11
-10 -11 -22 0 -13 -4 -29 -9 -36 -5 -9 -11 9 -15 50 -4 34 -12 68 -18 75 -6 7
-8 22 -5 32 3 13 -1 21 -14 24 -16 4 -19 15 -19 77 0 42 -4 69 -9 65 -6 -3
-14 10 -20 30 -8 31 -41 78 -41 59 0 -4 -3 -4 -7 0 -4 4 -8 45 -10 92 -3 89
-14 124 -37 124 -17 0 -26 31 -26 97 0 46 2 52 23 55 15 2 25 13 31 35 6 17
17 34 26 36 10 2 23 18 31 36 9 20 21 31 34 31 14 0 24 10 32 30 7 20 18 30
32 30 21 0 46 32 34 44 -3 3 2 7 13 8 10 0 24 2 29 2 21 3 35 18 35 37 0 13 7
19 24 19 30 0 57 25 50 45 -5 11 2 15 26 15 44 0 72 17 65 39 -5 18 12 26 73
33 15 2 15 11 1 25 -8 8 -2 15 22 27 18 9 37 16 43 16 6 0 17 13 24 28 9 20
23 31 50 38 22 5 41 17 46 30 7 15 22 23 48 27 37 5 68 26 68 46 0 6 13 11 29
11 46 0 82 17 79 37 -2 15 5 19 41 21 45 3 73 21 69 44 -2 9 11 14 42 16 25 1
52 5 60 9 8 3 18 5 23 5 4 -1 7 3 7 8 0 6 -4 10 -10 10 -5 0 -10 4 -10 9 0 8
33 15 130 27 47 6 63 14 43 21 -18 7 -16 23 2 23 9 0 28 6 43 14 19 10 40 12
70 6 31 -5 42 -4 42 5 0 7 -10 16 -22 20 -22 7 -21 8 7 12 16 3 38 11 49 19
11 8 34 14 52 14 17 0 55 13 85 30 33 18 69 30 92 30 41 0 138 28 148 42 3 5
30 11 60 14 78 8 139 25 139 39 0 10 39 15 145 20 80 4 148 11 151 16 3 5 17
10 32 10 17 1 21 3 10 6 -71 18 38 23 542 23 367 0 560 -3 560 -10z m-2270
-2730 c0 -5 -3 -10 -8 -10 -4 0 -9 -108 -10 -240 -3 -212 -2 -241 12 -246 9
-3 16 -12 16 -19 0 -15 -42 -28 -64 -19 -17 7 -22 34 -6 34 15 0 11 63 -6 85
-13 17 -27 20 -99 20 l-85 0 0 49 c0 40 3 47 16 42 9 -3 20 -6 25 -6 5 0 9 -7
9 -15 0 -9 9 -15 25 -15 14 0 25 4 25 9 0 5 18 12 41 16 30 5 43 13 49 30 12
32 10 267 -3 283 -7 9 -1 12 27 12 20 0 36 -4 36 -10z m2722 -2 c-15 -15 -17
-202 -2 -193 6 3 10 -1 10 -9 0 -13 -12 -16 -55 -16 l-55 0 0 115 0 115 57 0
c44 0 54 -3 45 -12z m-2862 -1727 c0 -33 4 -71 10 -85 8 -23 15 -26 57 -26 65
0 81 -11 64 -42 -13 -25 -1 -77 19 -79 5 -1 14 -2 19 -3 5 0 13 -4 17 -8 11
-12 114 -10 114 2 0 6 5 10 10 10 6 0 10 -21 10 -47 -1 -42 -2 -46 -14 -30
-10 13 -27 17 -72 17 -103 -1 -117 -28 -113 -220 3 -137 5 -144 47 -167 26
-15 132 -17 132 -3 0 6 4 10 10 10 5 0 10 -32 12 -72 3 -67 5 -73 28 -79 21
-6 22 -7 5 -9 -19 -1 -19 -2 2 -12 12 -6 30 -7 40 -3 17 7 17 8 -2 15 -17 7
-14 9 13 9 l32 1 0 -198 0 -199 -43 1 c-80 2 -77 15 -77 -353 -1 -273 -3 -323
-14 -308 -7 9 -19 17 -26 17 -9 0 -11 27 -8 110 3 102 -2 131 -16 95 -5 -13
-9 -13 -26 -3 -18 11 -20 24 -20 103 -1 96 -13 134 -42 130 -16 -3 -18 6 -18
80 0 63 -4 87 -16 99 -8 9 -19 14 -24 11 -14 -8 -19 23 -22 132 -2 77 -7 104
-17 108 -8 3 -18 1 -21 -5 -13 -20 -20 18 -20 102 0 80 -16 158 -32 158 -4 0
-8 -12 -9 -27 -1 -27 -1 -27 -10 5 -5 17 -15 32 -21 32 -8 0 -9 25 -5 86 6 81
5 85 -13 79 -12 -4 -20 -2 -20 4 0 6 -7 11 -16 11 -14 0 -16 14 -12 110 2 61
0 110 -4 110 -5 0 -8 -10 -8 -22 0 -22 -1 -22 -25 6 -23 27 -25 37 -25 121 0
79 -3 94 -17 101 -10 4 -21 6 -25 6 -11 -3 -17 33 -20 111 l-3 67 118 0 117 0
0 -59z"/>
<path d="M6188 8489 c-21 -12 -35 -76 -19 -92 24 -24 12 -37 -38 -37 -77 0
-81 -4 -81 -70 l0 -58 -77 -1 c-48 -1 -80 -6 -85 -14 -4 -6 -8 -7 -9 -2 -1 17
-27 -59 -28 -83 -1 -13 6 -30 14 -39 24 -23 9 -33 -50 -33 -86 0 -85 1 -85
-105 0 -106 -1 -105 86 -105 47 0 54 -2 54 -20 0 -11 -4 -20 -10 -20 -13 0
-13 -77 0 -85 6 -3 7 -17 4 -30 -6 -26 -13 -24 111 -30 l70 -3 3 -136 c1 -75
7 -136 11 -136 5 0 7 -8 5 -17 -4 -15 2 -18 36 -18 32 -1 40 3 40 17 0 10 5
18 10 18 11 0 13 -35 12 -250 -2 -200 9 -234 76 -225 17 2 32 -1 32 -6 0 -6 3
-8 8 -6 4 3 23 8 42 11 69 11 84 16 91 27 12 20 20 94 14 127 l-5 31 62 3 63
3 3 60 3 60 135 -2 c79 -2 144 1 155 7 18 10 19 24 19 220 l0 210 60 0 c57 0
61 2 72 28 15 37 14 304 -2 342 -12 28 -15 30 -71 30 l-59 0 0 145 0 145 -24
6 c-14 3 -52 4 -85 2 -47 -2 -61 0 -61 11 0 8 7 19 15 25 19 14 33 86 16 86
-6 0 -11 -4 -11 -10 0 -18 -18 -10 -23 10 -5 19 -13 20 -244 20 -139 0 -245
-5 -255 -11z"/>
<path d="M8028 7913 c-6 -7 -19 -13 -28 -13 -15 0 -20 -12 -25 -65 -8 -74 0
-135 19 -135 7 0 22 -9 34 -20 16 -15 35 -20 76 -20 66 0 100 14 115 47 14 31
13 149 -2 188 -12 30 -12 30 -95 31 -57 0 -86 -4 -94 -13z"/>
<path d="M6990 7172 c-10 -11 -11 -17 -2 -20 7 -2 -3 -17 -22 -35 -18 -18 -36
-40 -39 -49 -9 -25 15 -118 30 -118 7 0 13 -6 13 -13 0 -13 5 -15 88 -20 28
-3 52 -1 52 2 0 3 44 5 98 5 l99 -1 11 32 c15 39 16 162 2 170 -5 3 -10 16
-10 28 0 24 1 24 -93 33 -60 6 -93 -7 -83 -33 4 -9 -3 -13 -20 -13 -14 0 -23
4 -19 10 20 33 -76 53 -105 22z"/>
<path d="M6530 11215 l0 -25 275 0 275 0 0 25 0 25 -275 0 -275 0 0 -25z"/>
<path d="M6700 10875 l0 -75 60 0 60 0 0 75 0 75 -60 0 -60 0 0 -75z"/>
<path d="M8560 10875 l0 -75 145 0 145 0 0 30 c0 20 5 30 15 30 11 0 15 12 15
45 l0 45 -160 0 -160 0 0 -75z"/>
<path d="M10160 10280 c0 -20 -5 -30 -15 -30 -9 0 -15 -9 -15 -25 l0 -25 160
0 160 0 0 55 0 55 -145 0 -145 0 0 -30z"/>
<path d="M10070 10005 c0 -10 -10 -15 -30 -15 l-30 0 0 -60 0 -60 30 0 c27 0
30 3 30 30 l0 30 60 0 60 0 0 -30 c0 -27 3 -30 30 -30 27 0 30 3 30 30 0 25 4
30 25 30 21 0 25 -5 25 -30 0 -27 3 -30 30 -30 23 0 30 4 30 20 0 11 7 20 15
20 8 0 15 5 15 10 0 6 7 10 15 10 8 0 15 7 15 15 0 8 7 15 15 15 10 0 15 10
15 30 0 27 -3 30 -30 30 -20 0 -30 -5 -30 -15 0 -11 -12 -15 -45 -15 -33 0
-45 4 -45 15 0 9 -9 15 -25 15 -16 0 -25 -6 -25 -15 0 -10 -10 -15 -30 -15
-20 0 -30 5 -30 15 0 12 -13 15 -60 15 -47 0 -60 -3 -60 -15z"/>
<path d="M2690 9226 c0 -11 86 -14 510 -15 456 -2 510 -1 510 13 0 14 -55 16
-510 16 -425 0 -510 -2 -510 -14z"/>
</g>
</svg>
